<?xml version="1.0" standalone="no"?>
<!DOCTYPE svg PUBLIC "-//W3C//DTD SVG 1.1//EN"
"http://www.w3.org/Graphics/SVG/1.1/DTD/svg11.dtd">

<svg width="664" height="463" view_box="0 0 664 463"
xmlns="http://www.w3.org/2000/svg"
xmlns:link="http://www.w3.org/1999/xlink">\n\n<desc>Généré par Mocodo 2.3.7 le Wed, 18 Nov 2020 11:47:26</desc>

<rect id="frame" x="0" y="0" width="664" height="463" fill="#ffffbf" stroke="none" stroke-width="0"/>

<!-- Association POSSEDER_DEVIS -->
<line x1="487" y1="160" x2="487" y2="51" stroke="#66bd63" stroke-width="2"/>
<text x="492.0" y="110" fill="#d73027" font-family="Verdana" font-size="12">1,1</text>
<line x1="302" y1="51" x2="487" y2="51" stroke="#66bd63" stroke-width="2"/>
<text x="353" y="68.0" fill="#d73027" font-family="Verdana" font-size="12">0,N</text>
<line x1="619" y1="51" x2="487" y2="51" stroke="#66bd63" stroke-width="2"/>
<text x="556" y="68.0" fill="#d73027" font-family="Verdana" font-size="12">0,N</text>
<g id="association-POSSEDER_DEVIS">
	<path d="M 537 26 a 14 14 90 0 1 14 14 V 51 h -128 V 40 a 14 14 90 0 1 14 -14" fill="#a6d96a" stroke="#a6d96a" stroke-width="0"/>
	<path d="M 551 51.0 v 11 a 14 14 90 0 1 -14 14 H 437 a 14 14 90 0 1 -14 -14 V 51.0 H 128" fill="#d9ef8b" stroke="#d9ef8b" stroke-width="0"/>
	<rect x="423" y="26" width="128" height="50" fill="none" rx="14" stroke="#66bd63" stroke-width="2"/>
	<line x1="423" y1="51" x2="551" y2="51" stroke="#66bd63" stroke-width="1"/>
	<text x="430" y="43.7" fill="#000000" font-family="Verdana" font-size="12">POSSEDER_DEVIS</text>
</g>

<!-- Association DONNER -->
<line x1="44" y1="51" x2="44" y2="160" stroke="#66bd63" stroke-width="2"/>
<text x="49.0" y="110" fill="#d73027" font-family="Verdana" font-size="12">1,1</text>
<line x1="44" y1="286" x2="44" y2="160" stroke="#66bd63" stroke-width="2"/>
<text x="49.0" y="202" fill="#d73027" font-family="Verdana" font-size="12">1,N</text>
<g id="association-DONNER">
	<path d="M 64 135 a 14 14 90 0 1 14 14 V 160 h -68 V 149 a 14 14 90 0 1 14 -14" fill="#a6d96a" stroke="#a6d96a" stroke-width="0"/>
	<path d="M 78 160.0 v 11 a 14 14 90 0 1 -14 14 H 24 a 14 14 90 0 1 -14 -14 V 160.0 H 68" fill="#d9ef8b" stroke="#d9ef8b" stroke-width="0"/>
	<rect x="10" y="135" width="68" height="50" fill="none" rx="14" stroke="#66bd63" stroke-width="2"/>
	<line x1="10" y1="160" x2="78" y2="160" stroke="#66bd63" stroke-width="1"/>
	<text x="17" y="152.7" fill="#000000" font-family="Verdana" font-size="12">DONNER</text>
	<text x="17" y="177.8" fill="#000000" font-family="Verdana" font-size="12">date</text>
</g>

<!-- Association DAMANDER -->
<line x1="154" y1="160" x2="154" y2="286" stroke="#66bd63" stroke-width="2"/>
<text x="159.0" y="219" fill="#d73027" font-family="Verdana" font-size="12">1,1</text>
<line x1="44" y1="286" x2="154" y2="286" stroke="#66bd63" stroke-width="2"/>
<text x="84" y="303.0" fill="#d73027" font-family="Verdana" font-size="12">1,N</text>
<g id="association-DAMANDER">
	<path d="M 183 261 a 14 14 90 0 1 14 14 V 286 h -86 V 275 a 14 14 90 0 1 14 -14" fill="#a6d96a" stroke="#a6d96a" stroke-width="0"/>
	<path d="M 197 286.0 v 11 a 14 14 90 0 1 -14 14 H 125 a 14 14 90 0 1 -14 -14 V 286.0 H 86" fill="#d9ef8b" stroke="#d9ef8b" stroke-width="0"/>
	<rect x="111" y="261" width="86" height="50" fill="none" rx="14" stroke="#66bd63" stroke-width="2"/>
	<line x1="111" y1="286" x2="197" y2="286" stroke="#66bd63" stroke-width="1"/>
	<text x="118" y="278.7" fill="#000000" font-family="Verdana" font-size="12">DAMANDER</text>
</g>

<!-- Association INCLURE -->
<line x1="302" y1="286" x2="302" y2="412" stroke="#66bd63" stroke-width="2"/>
<text x="307.0" y="354" fill="#d73027" font-family="Verdana" font-size="12">1,1</text>
<line x1="154" y1="412" x2="302" y2="412" stroke="#66bd63" stroke-width="2"/>
<text x="191" y="429.0" fill="#d73027" font-family="Verdana" font-size="12">1,N</text>
<g id="association-INCLURE">
	<path d="M 323 387 a 14 14 90 0 1 14 14 V 412 h -70 V 401 a 14 14 90 0 1 14 -14" fill="#a6d96a" stroke="#a6d96a" stroke-width="0"/>
	<path d="M 337 412.0 v 11 a 14 14 90 0 1 -14 14 H 281 a 14 14 90 0 1 -14 -14 V 412.0 H 70" fill="#d9ef8b" stroke="#d9ef8b" stroke-width="0"/>
	<rect x="267" y="387" width="70" height="50" fill="none" rx="14" stroke="#66bd63" stroke-width="2"/>
	<line x1="267" y1="412" x2="337" y2="412" stroke="#66bd63" stroke-width="1"/>
	<text x="274" y="404.7" fill="#000000" font-family="Verdana" font-size="12">INCLURE</text>
</g>

<!-- Association VENDU -->
<line x1="44" y1="286" x2="44" y2="412" stroke="#66bd63" stroke-width="2"/>
<text x="49.0" y="379" fill="#d73027" font-family="Verdana" font-size="12">1,N</text>
<line x1="154" y1="412" x2="44" y2="412" stroke="#66bd63" stroke-width="2"/>
<text x="96" y="429.0" fill="#d73027" font-family="Verdana" font-size="12">1,1</text>
<g id="association-VENDU">
	<path d="M 59 387 a 14 14 90 0 1 14 14 V 412 h -58 V 401 a 14 14 90 0 1 14 -14" fill="#a6d96a" stroke="#a6d96a" stroke-width="0"/>
	<path d="M 73 412.0 v 11 a 14 14 90 0 1 -14 14 H 29 a 14 14 90 0 1 -14 -14 V 412.0 H 58" fill="#d9ef8b" stroke="#d9ef8b" stroke-width="0"/>
	<rect x="15" y="387" width="58" height="50" fill="none" rx="14" stroke="#66bd63" stroke-width="2"/>
	<line x1="15" y1="412" x2="73" y2="412" stroke="#66bd63" stroke-width="1"/>
	<text x="22" y="404.7" fill="#000000" font-family="Verdana" font-size="12">VENDU</text>
</g>

<!-- Association POSSEDER -->
<line x1="302" y1="286" x2="487" y2="286" stroke="#66bd63" stroke-width="2"/>
<text x="380" y="303.0" fill="#d73027" font-family="Verdana" font-size="12">1,1</text>
<line x1="487" y1="412" x2="487" y2="286" stroke="#66bd63" stroke-width="2"/>
<text x="492.0" y="362" fill="#d73027" font-family="Verdana" font-size="12">0,N</text>
<line x1="619" y1="286" x2="487" y2="286" stroke="#66bd63" stroke-width="2"/>
<text x="559" y="303.0" fill="#d73027" font-family="Verdana" font-size="12">0,N</text>
<g id="association-POSSEDER">
	<path d="M 514 261 a 14 14 90 0 1 14 14 V 286 h -82 V 275 a 14 14 90 0 1 14 -14" fill="#a6d96a" stroke="#a6d96a" stroke-width="0"/>
	<path d="M 528 286.0 v 11 a 14 14 90 0 1 -14 14 H 460 a 14 14 90 0 1 -14 -14 V 286.0 H 82" fill="#d9ef8b" stroke="#d9ef8b" stroke-width="0"/>
	<rect x="446" y="261" width="82" height="50" fill="none" rx="14" stroke="#66bd63" stroke-width="2"/>
	<line x1="446" y1="286" x2="528" y2="286" stroke="#66bd63" stroke-width="1"/>
	<text x="453" y="278.7" fill="#000000" font-family="Verdana" font-size="12">POSSEDER</text>
</g>

<!-- Association INCLURE_DEVIS -->
<line x1="487" y1="160" x2="302" y2="160" stroke="#66bd63" stroke-width="2"/>
<text x="366" y="177.0" fill="#d73027" font-family="Verdana" font-size="12">1,1</text>
<line x1="154" y1="160" x2="302" y2="160" stroke="#66bd63" stroke-width="2"/>
<text x="190" y="177.0" fill="#d73027" font-family="Verdana" font-size="12">1,N</text>
<g id="association-INCLURE_DEVIS">
	<path d="M 346 135 a 14 14 90 0 1 14 14 V 160 h -116 V 149 a 14 14 90 0 1 14 -14" fill="#a6d96a" stroke="#a6d96a" stroke-width="0"/>
	<path d="M 360 160.0 v 11 a 14 14 90 0 1 -14 14 H 258 a 14 14 90 0 1 -14 -14 V 160.0 H 116" fill="#d9ef8b" stroke="#d9ef8b" stroke-width="0"/>
	<rect x="244" y="135" width="116" height="50" fill="none" rx="14" stroke="#66bd63" stroke-width="2"/>
	<line x1="244" y1="160" x2="360" y2="160" stroke="#66bd63" stroke-width="1"/>
	<text x="251" y="152.7" fill="#000000" font-family="Verdana" font-size="12">INCLURE_DEVIS</text>
</g>

<!-- Entity MAQUILLAGE -->
<g id="entity-MAQUILLAGE">
	<g id="frame-MAQUILLAGE">
		<rect x="256" y="9" width="92" height="25" fill="#fdae61" stroke="#fdae61" stroke-width="0"/>
		<rect x="256" y="34.0" width="92" height="59" fill="#fee08b" stroke="#fee08b" stroke-width="0"/>
		<rect x="256" y="9" width="92" height="84" fill="none" stroke="#f46d43" stroke-width="2"/>
		<line x1="256" y1="34" x2="348" y2="34" stroke="#f46d43" stroke-width="1"/>
	</g>
	<text x="261" y="26.7" fill="#000000" font-family="Verdana" font-size="12">MAQUILLAGE</text>
	<text x="261" y="51.8" fill="#000000" font-family="Verdana" font-size="12">id_maq</text>
	<line x1="261" y1="54" x2="307" y2="54" stroke="#000000" stroke-width="1"/>
	<text x="261" y="68.8" fill="#000000" font-family="Verdana" font-size="12">libellé</text>
	<text x="261" y="85.8" fill="#000000" font-family="Verdana" font-size="12">photo</text>
</g>

<!-- Entity LIGNE DE COMMANDE -->
<g id="entity-LIGNE DE COMMANDE">
	<g id="frame-LIGNE DE COMMANDE">
		<rect x="229" y="235" width="146" height="25" fill="#fdae61" stroke="#fdae61" stroke-width="0"/>
		<rect x="229" y="260.0" width="146" height="77" fill="#fee08b" stroke="#fee08b" stroke-width="0"/>
		<rect x="229" y="235" width="146" height="102" fill="none" stroke="#f46d43" stroke-width="2"/>
		<line x1="229" y1="260" x2="375" y2="260" stroke="#f46d43" stroke-width="1"/>
	</g>
	<text x="234" y="252.7" fill="#000000" font-family="Verdana" font-size="12">LIGNE DE COMMANDE</text>
	<text x="234" y="277.7" fill="#000000" font-family="Verdana" font-size="12">id_lcmd</text>
	<line x1="234" y1="280" x2="282" y2="280" stroke="#000000" stroke-width="1"/>
	<text x="234" y="294.8" fill="#000000" font-family="Verdana" font-size="12">qté</text>
	<text x="234" y="311.8" fill="#000000" font-family="Verdana" font-size="12">prix_unit</text>
	<text x="234" y="328.8" fill="#000000" font-family="Verdana" font-size="12">date</text>
</g>

<!-- Entity SHOP -->
<g id="entity-SHOP">
	<g id="frame-SHOP">
		<rect x="586" y="244" width="66" height="25" fill="#fdae61" stroke="#fdae61" stroke-width="0"/>
		<rect x="586" y="269.0" width="66" height="59" fill="#fee08b" stroke="#fee08b" stroke-width="0"/>
		<rect x="586" y="244" width="66" height="84" fill="none" stroke="#f46d43" stroke-width="2"/>
		<line x1="586" y1="269" x2="652" y2="269" stroke="#f46d43" stroke-width="1"/>
	</g>
	<text x="601" y="261.7" fill="#000000" font-family="Verdana" font-size="12">SHOP</text>
	<text x="591" y="286.8" fill="#000000" font-family="Verdana" font-size="12">id_prod</text>
	<line x1="591" y1="289" x2="638" y2="289" stroke="#000000" stroke-width="1"/>
	<text x="591" y="303.8" fill="#000000" font-family="Verdana" font-size="12">libellé</text>
	<text x="591" y="320.8" fill="#000000" font-family="Verdana" font-size="12">prix_unit</text>
</g>

<!-- Entity VENTE -->
<g id="entity-VENTE">
	<g id="frame-VENTE">
		<rect x="122" y="370" width="64" height="25" fill="#fdae61" stroke="#fdae61" stroke-width="0"/>
		<rect x="122" y="395.0" width="64" height="59" fill="#fee08b" stroke="#fee08b" stroke-width="0"/>
		<rect x="122" y="370" width="64" height="84" fill="none" stroke="#f46d43" stroke-width="2"/>
		<line x1="122" y1="395" x2="186" y2="395" stroke="#f46d43" stroke-width="1"/>
	</g>
	<text x="133" y="387.7" fill="#000000" font-family="Verdana" font-size="12">VENTE</text>
	<text x="127" y="412.8" fill="#000000" font-family="Verdana" font-size="12">id_vente</text>
	<line x1="127" y1="415" x2="180" y2="415" stroke="#000000" stroke-width="1"/>
	<text x="127" y="429.8" fill="#000000" font-family="Verdana" font-size="12">date</text>
	<text x="127" y="446.8" fill="#000000" font-family="Verdana" font-size="12">montant</text>
</g>

<!-- Entity ONGLE -->
<g id="entity-ONGLE">
	<g id="frame-ONGLE">
		<rect x="454" y="370" width="66" height="25" fill="#fdae61" stroke="#fdae61" stroke-width="0"/>
		<rect x="454" y="395.0" width="66" height="59" fill="#fee08b" stroke="#fee08b" stroke-width="0"/>
		<rect x="454" y="370" width="66" height="84" fill="none" stroke="#f46d43" stroke-width="2"/>
		<line x1="454" y1="395" x2="520" y2="395" stroke="#f46d43" stroke-width="1"/>
	</g>
	<text x="465" y="387.7" fill="#000000" font-family="Verdana" font-size="12">ONGLE</text>
	<text x="459" y="412.8" fill="#000000" font-family="Verdana" font-size="12">id_ong</text>
	<line x1="459" y1="415" x2="501" y2="415" stroke="#000000" stroke-width="1"/>
	<text x="459" y="429.8" fill="#000000" font-family="Verdana" font-size="12">libellé</text>
	<text x="459" y="446.8" fill="#000000" font-family="Verdana" font-size="12">prix_unit</text>
</g>

<!-- Entity CLIENT -->
<g id="entity-CLIENT">
	<g id="frame-CLIENT">
		<rect x="9" y="210" width="70" height="25" fill="#fdae61" stroke="#fdae61" stroke-width="0"/>
		<rect x="9" y="235.0" width="70" height="127" fill="#fee08b" stroke="#fee08b" stroke-width="0"/>
		<rect x="9" y="210" width="70" height="152" fill="none" stroke="#f46d43" stroke-width="2"/>
		<line x1="9" y1="235" x2="79" y2="235" stroke="#f46d43" stroke-width="1"/>
	</g>
	<text x="21" y="227.7" fill="#000000" font-family="Verdana" font-size="12">CLIENT</text>
	<text x="14" y="252.7" fill="#000000" font-family="Verdana" font-size="12">id_client</text>
	<line x1="14" y1="255" x2="66" y2="255" stroke="#000000" stroke-width="1"/>
	<text x="14" y="269.7" fill="#000000" font-family="Verdana" font-size="12">nom</text>
	<text x="14" y="286.8" fill="#000000" font-family="Verdana" font-size="12">prénom</text>
	<text x="14" y="303.8" fill="#000000" font-family="Verdana" font-size="12">téléphone</text>
	<text x="14" y="320.8" fill="#000000" font-family="Verdana" font-size="12">email</text>
	<text x="14" y="337.8" fill="#000000" font-family="Verdana" font-size="12">ville</text>
	<text x="14" y="354.8" fill="#000000" font-family="Verdana" font-size="12">cp</text>
</g>

<!-- Entity AVIS -->
<g id="entity-AVIS">
	<g id="frame-AVIS">
		<rect x="17" y="9" width="54" height="25" fill="#fdae61" stroke="#fdae61" stroke-width="0"/>
		<rect x="17" y="34.0" width="54" height="59" fill="#fee08b" stroke="#fee08b" stroke-width="0"/>
		<rect x="17" y="9" width="54" height="84" fill="none" stroke="#f46d43" stroke-width="2"/>
		<line x1="17" y1="34" x2="71" y2="34" stroke="#f46d43" stroke-width="1"/>
	</g>
	<text x="28" y="26.7" fill="#000000" font-family="Verdana" font-size="12">AVIS</text>
	<text x="22" y="51.8" fill="#000000" font-family="Verdana" font-size="12">id_avis</text>
	<line x1="22" y1="54" x2="65" y2="54" stroke="#000000" stroke-width="1"/>
	<text x="22" y="68.8" fill="#000000" font-family="Verdana" font-size="12">libellé</text>
	<text x="22" y="85.8" fill="#000000" font-family="Verdana" font-size="12">date</text>
</g>

<!-- Entity DEVIS -->
<g id="entity-DEVIS">
	<g id="frame-DEVIS">
		<rect x="123" y="118" width="62" height="25" fill="#fdae61" stroke="#fdae61" stroke-width="0"/>
		<rect x="123" y="143.0" width="62" height="59" fill="#fee08b" stroke="#fee08b" stroke-width="0"/>
		<rect x="123" y="118" width="62" height="84" fill="none" stroke="#f46d43" stroke-width="2"/>
		<line x1="123" y1="143" x2="185" y2="143" stroke="#f46d43" stroke-width="1"/>
	</g>
	<text x="134" y="135.7" fill="#000000" font-family="Verdana" font-size="12">DEVIS</text>
	<text x="128" y="160.8" fill="#000000" font-family="Verdana" font-size="12">id</text>
	<line x1="128" y1="163" x2="140" y2="163" stroke="#000000" stroke-width="1"/>
	<text x="128" y="177.8" fill="#000000" font-family="Verdana" font-size="12">date</text>
	<text x="128" y="194.8" fill="#000000" font-family="Verdana" font-size="12">montant</text>
</g>

<!-- Entity LIGNE DE COMMANDE DEVIS -->
<g id="entity-LIGNE DE COMMANDE DEVIS">
	<g id="frame-LIGNE DE COMMANDE DEVIS">
		<rect x="392" y="118" width="190" height="25" fill="#fdae61" stroke="#fdae61" stroke-width="0"/>
		<rect x="392" y="143.0" width="190" height="59" fill="#fee08b" stroke="#fee08b" stroke-width="0"/>
		<rect x="392" y="118" width="190" height="84" fill="none" stroke="#f46d43" stroke-width="2"/>
		<line x1="392" y1="143" x2="582" y2="143" stroke="#f46d43" stroke-width="1"/>
	</g>
	<text x="397" y="135.7" fill="#000000" font-family="Verdana" font-size="12">LIGNE DE COMMANDE DEVIS</text>
	<text x="397" y="160.8" fill="#000000" font-family="Verdana" font-size="12">id</text>
	<line x1="397" y1="163" x2="409" y2="163" stroke="#000000" stroke-width="1"/>
	<text x="397" y="177.8" fill="#000000" font-family="Verdana" font-size="12">qté</text>
	<text x="397" y="194.8" fill="#000000" font-family="Verdana" font-size="12">date</text>
</g>

<!-- Entity COIFFURE -->
<g id="entity-COIFFURE">
	<g id="frame-COIFFURE">
		<rect x="583" y="9" width="72" height="25" fill="#fdae61" stroke="#fdae61" stroke-width="0"/>
		<rect x="583" y="34.0" width="72" height="59" fill="#fee08b" stroke="#fee08b" stroke-width="0"/>
		<rect x="583" y="9" width="72" height="84" fill="none" stroke="#f46d43" stroke-width="2"/>
		<line x1="583" y1="34" x2="655" y2="34" stroke="#f46d43" stroke-width="1"/>
	</g>
	<text x="588" y="26.7" fill="#000000" font-family="Verdana" font-size="12">COIFFURE</text>
	<text x="588" y="51.8" fill="#000000" font-family="Verdana" font-size="12">id_coif</text>
	<line x1="588" y1="54" x2="628" y2="54" stroke="#000000" stroke-width="1"/>
	<text x="588" y="68.8" fill="#000000" font-family="Verdana" font-size="12">libellé</text>
	<text x="588" y="85.8" fill="#000000" font-family="Verdana" font-size="12">photo</text>
</g>
</svg>