<?xml version="1.0" standalone="no"?>
<!DOCTYPE svg PUBLIC "-//W3C//DTD SVG 1.1//EN"
"http://www.w3.org/Graphics/SVG/1.1/DTD/svg11.dtd">

<svg width="741" height="382" view_box="0 0 741 382"
xmlns="http://www.w3.org/2000/svg"
xmlns:link="http://www.w3.org/1999/xlink">\n\n<desc>Généré par Mocodo 2.3.7 le Fri, 30 Oct 2020 03:53:03</desc>

<rect id="frame" x="0" y="0" width="741" height="382" fill="#ffffbf" stroke="none" stroke-width="0"/>

<!-- Association PEUT GENERER -->
<line x1="378" y1="60" x2="534" y2="60" stroke="#66c2a5" stroke-width="2"/>
<text x="436" y="77.0" fill="#d53e4f" font-family="Verdana" font-size="12">1,1</text>
<line x1="678" y1="60" x2="534" y2="60" stroke="#66c2a5" stroke-width="2"/>
<text x="620" y="77.0" fill="#d53e4f" font-family="Verdana" font-size="12">1,1</text>
<g id="association-PEUT GENERER">
	<path d="M 574 35 a 14 14 90 0 1 14 14 V 60 h -108 V 49 a 14 14 90 0 1 14 -14" fill="#abdda4" stroke="#abdda4" stroke-width="0"/>
	<path d="M 588 60.0 v 11 a 14 14 90 0 1 -14 14 H 494 a 14 14 90 0 1 -14 -14 V 60.0 H 108" fill="#e6f598" stroke="#e6f598" stroke-width="0"/>
	<rect x="480" y="35" width="108" height="50" fill="none" rx="14" stroke="#66c2a5" stroke-width="2"/>
	<line x1="480" y1="60" x2="588" y2="60" stroke="#66c2a5" stroke-width="1"/>
	<text x="487" y="52.7" fill="#000000" font-family="Verdana" font-size="12">PEUT GENERER</text>
</g>

<!-- Association PEUT RESERVER -->
<line x1="678" y1="305" x2="534" y2="187" stroke="#66c2a5" stroke-width="2"/>
<text x="601" y="274.944284148" fill="#d53e4f" font-family="Verdana" font-size="12">1,N</text>
<line x1="378" y1="187" x2="534" y2="187" stroke="#66c2a5" stroke-width="2"/>
<text x="432" y="204.0" fill="#d53e4f" font-family="Verdana" font-size="12">1,1</text>
<g id="association-PEUT RESERVER">
	<path d="M 577 162 a 14 14 90 0 1 14 14 V 187 h -114 V 176 a 14 14 90 0 1 14 -14" fill="#abdda4" stroke="#abdda4" stroke-width="0"/>
	<path d="M 591 187.0 v 11 a 14 14 90 0 1 -14 14 H 491 a 14 14 90 0 1 -14 -14 V 187.0 H 114" fill="#e6f598" stroke="#e6f598" stroke-width="0"/>
	<rect x="477" y="162" width="114" height="50" fill="none" rx="14" stroke="#66c2a5" stroke-width="2"/>
	<line x1="477" y1="187" x2="591" y2="187" stroke="#66c2a5" stroke-width="1"/>
	<text x="484" y="179.7" fill="#000000" font-family="Verdana" font-size="12">PEUT RESERVER</text>
</g>

<!-- Association PEUT ACHETER -->
<line x1="678" y1="60" x2="678" y2="187" stroke="#66c2a5" stroke-width="2"/>
<text x="683.0" y="128" fill="#d53e4f" font-family="Verdana" font-size="12">1,1</text>
<line x1="678" y1="305" x2="678" y2="187" stroke="#66c2a5" stroke-width="2"/>
<text x="683.0" y="229" fill="#d53e4f" font-family="Verdana" font-size="12">1,1</text>
<g id="association-PEUT ACHETER">
	<path d="M 718 162 a 14 14 90 0 1 14 14 V 187 h -108 V 176 a 14 14 90 0 1 14 -14" fill="#abdda4" stroke="#abdda4" stroke-width="0"/>
	<path d="M 732 187.0 v 11 a 14 14 90 0 1 -14 14 H 638 a 14 14 90 0 1 -14 -14 V 187.0 H 108" fill="#e6f598" stroke="#e6f598" stroke-width="0"/>
	<rect x="624" y="162" width="108" height="50" fill="none" rx="14" stroke="#66c2a5" stroke-width="2"/>
	<line x1="624" y1="187" x2="732" y2="187" stroke="#66c2a5" stroke-width="1"/>
	<text x="631" y="179.7" fill="#000000" font-family="Verdana" font-size="12">PEUT ACHETER</text>
</g>

<!-- Association PEUT CONSULTER -->
<line x1="678" y1="305" x2="534" y2="305" stroke="#66c2a5" stroke-width="2"/>
<text x="601" y="322.0" fill="#d53e4f" font-family="Verdana" font-size="12">0,N</text>
<line x1="378" y1="305" x2="534" y2="305" stroke="#66c2a5" stroke-width="2"/>
<text x="445" y="322.0" fill="#d53e4f" font-family="Verdana" font-size="12">0,N</text>
<g id="association-PEUT CONSULTER">
	<path d="M 582 280 a 14 14 90 0 1 14 14 V 305 h -124 V 294 a 14 14 90 0 1 14 -14" fill="#abdda4" stroke="#abdda4" stroke-width="0"/>
	<path d="M 596 305.0 v 11 a 14 14 90 0 1 -14 14 H 486 a 14 14 90 0 1 -14 -14 V 305.0 H 124" fill="#e6f598" stroke="#e6f598" stroke-width="0"/>
	<rect x="472" y="280" width="124" height="50" fill="none" rx="14" stroke="#66c2a5" stroke-width="2"/>
	<line x1="472" y1="305" x2="596" y2="305" stroke="#66c2a5" stroke-width="1"/>
	<text x="479" y="297.7" fill="#000000" font-family="Verdana" font-size="12">PEUT CONSULTER</text>
</g>

<!-- Association PEUT ETRE COMMANDER -->
<line x1="64" y1="60" x2="210" y2="60" stroke="#66c2a5" stroke-width="2"/>
<text x="100" y="77.0" fill="#d53e4f" font-family="Verdana" font-size="12">0,N</text>
<line x1="210" y1="187" x2="210" y2="60" stroke="#66c2a5" stroke-width="2"/>
<text x="215.0" y="128" fill="#d53e4f" font-family="Verdana" font-size="12">0,N</text>
<line x1="64" y1="187" x2="210" y2="60" stroke="#66c2a5" stroke-width="2"/>
<text x="124" y="149.780818828" fill="#d53e4f" font-family="Verdana" font-size="12">0,N</text>
<line x1="378" y1="60" x2="210" y2="60" stroke="#66c2a5" stroke-width="2"/>
<text x="299" y="77.0" fill="#d53e4f" font-family="Verdana" font-size="12">1,1</text>
<g id="association-PEUT ETRE COMMANDER">
	<path d="M 279 35 a 14 14 90 0 1 14 14 V 60 h -166 V 49 a 14 14 90 0 1 14 -14" fill="#abdda4" stroke="#abdda4" stroke-width="0"/>
	<path d="M 293 60.0 v 11 a 14 14 90 0 1 -14 14 H 141 a 14 14 90 0 1 -14 -14 V 60.0 H 166" fill="#e6f598" stroke="#e6f598" stroke-width="0"/>
	<rect x="127" y="35" width="166" height="50" fill="none" rx="14" stroke="#66c2a5" stroke-width="2"/>
	<line x1="127" y1="60" x2="293" y2="60" stroke="#66c2a5" stroke-width="1"/>
	<text x="134" y="52.7" fill="#000000" font-family="Verdana" font-size="12">PEUT ETRE COMMANDER</text>
</g>

<!-- Entity MAQUILLAGE -->
<g id="entity-MAQUILLAGE">
	<g id="frame-MAQUILLAGE">
		<rect x="164" y="136" width="92" height="25" fill="#fdae61" stroke="#fdae61" stroke-width="0"/>
		<rect x="164" y="161.0" width="92" height="77" fill="#fee08b" stroke="#fee08b" stroke-width="0"/>
		<rect x="164" y="136" width="92" height="102" fill="none" stroke="#f46d43" stroke-width="2"/>
		<line x1="164" y1="161" x2="256" y2="161" stroke="#f46d43" stroke-width="1"/>
	</g>
	<text x="169" y="153.7" fill="#000000" font-family="Verdana" font-size="12">MAQUILLAGE</text>
	<text x="169" y="178.7" fill="#000000" font-family="Verdana" font-size="12">Id_maq</text>
	<line x1="169" y1="181" x2="217" y2="181" stroke="#000000" stroke-width="1"/>
	<text x="169" y="195.8" fill="#000000" font-family="Verdana" font-size="12">libelle</text>
	<text x="169" y="212.8" fill="#000000" font-family="Verdana" font-size="12">resume</text>
	<text x="169" y="229.8" fill="#000000" font-family="Verdana" font-size="12">prix</text>
</g>

<!-- Entity CONSEILS_TUTOS -->
<g id="entity-CONSEILS_TUTOS">
	<g id="frame-CONSEILS_TUTOS">
		<rect x="316" y="271" width="124" height="25" fill="#fdae61" stroke="#fdae61" stroke-width="0"/>
		<rect x="316" y="296.0" width="124" height="43" fill="#fee08b" stroke="#fee08b" stroke-width="0"/>
		<rect x="316" y="271" width="124" height="68" fill="none" stroke="#f46d43" stroke-width="2"/>
		<line x1="316" y1="296" x2="440" y2="296" stroke="#f46d43" stroke-width="1"/>
	</g>
	<text x="321" y="288.7" fill="#000000" font-family="Verdana" font-size="12">CONSEILS_TUTOS</text>
	<text x="321" y="313.8" fill="#000000" font-family="Verdana" font-size="12">Id_csl</text>
	<line x1="321" y1="316" x2="358" y2="316" stroke="#000000" stroke-width="1"/>
	<text x="321" y="330.8" fill="#000000" font-family="Verdana" font-size="12">resume_csl</text>
</g>

<!-- Entity UTILISATEUR -->
<g id="entity-UTILISATEUR">
	<g id="frame-UTILISATEUR">
		<rect x="628" y="237" width="100" height="25" fill="#fdae61" stroke="#fdae61" stroke-width="0"/>
		<rect x="628" y="262.0" width="100" height="111" fill="#fee08b" stroke="#fee08b" stroke-width="0"/>
		<rect x="628" y="237" width="100" height="136" fill="none" stroke="#f46d43" stroke-width="2"/>
		<line x1="628" y1="262" x2="728" y2="262" stroke="#f46d43" stroke-width="1"/>
	</g>
	<text x="636" y="254.7" fill="#000000" font-family="Verdana" font-size="12">UTILISATEUR</text>
	<text x="633" y="279.7" fill="#000000" font-family="Verdana" font-size="12">Id_utr</text>
	<line x1="633" y1="282" x2="672" y2="282" stroke="#000000" stroke-width="1"/>
	<text x="633" y="296.7" fill="#000000" font-family="Verdana" font-size="12">nom</text>
	<text x="633" y="313.8" fill="#000000" font-family="Verdana" font-size="12">prenom</text>
	<text x="633" y="330.8" fill="#000000" font-family="Verdana" font-size="12">email</text>
	<text x="633" y="347.8" fill="#000000" font-family="Verdana" font-size="12">mot_de_passe</text>
	<text x="633" y="364.8" fill="#000000" font-family="Verdana" font-size="12">telephone</text>
</g>

<!-- Entity LIGNE_DE_CDE -->
<g id="entity-LIGNE_DE_CDE">
	<g id="frame-LIGNE_DE_CDE">
		<rect x="325" y="9" width="106" height="25" fill="#fdae61" stroke="#fdae61" stroke-width="0"/>
		<rect x="325" y="34.0" width="106" height="77" fill="#fee08b" stroke="#fee08b" stroke-width="0"/>
		<rect x="325" y="9" width="106" height="102" fill="none" stroke="#f46d43" stroke-width="2"/>
		<line x1="325" y1="34" x2="431" y2="34" stroke="#f46d43" stroke-width="1"/>
	</g>
	<text x="330" y="26.7" fill="#000000" font-family="Verdana" font-size="12">LIGNE_DE_CDE</text>
	<text x="330" y="51.7" fill="#000000" font-family="Verdana" font-size="12">Id_cde</text>
	<line x1="330" y1="54" x2="372" y2="54" stroke="#000000" stroke-width="1"/>
	<text x="330" y="68.8" fill="#000000" font-family="Verdana" font-size="12">qte_cde</text>
	<text x="330" y="85.8" fill="#000000" font-family="Verdana" font-size="12">prix_unitaire</text>
	<text x="330" y="102.8" fill="#000000" font-family="Verdana" font-size="12">date_cde</text>
</g>

<!-- Entity VENTE -->
<g id="entity-VENTE">
	<g id="frame-VENTE">
		<rect x="646" y="9" width="64" height="25" fill="#fdae61" stroke="#fdae61" stroke-width="0"/>
		<rect x="646" y="34.0" width="64" height="77" fill="#fee08b" stroke="#fee08b" stroke-width="0"/>
		<rect x="646" y="9" width="64" height="102" fill="none" stroke="#f46d43" stroke-width="2"/>
		<line x1="646" y1="34" x2="710" y2="34" stroke="#f46d43" stroke-width="1"/>
	</g>
	<text x="657" y="26.7" fill="#000000" font-family="Verdana" font-size="12">VENTE</text>
	<text x="651" y="51.7" fill="#000000" font-family="Verdana" font-size="12">Id_vte</text>
	<line x1="651" y1="54" x2="691" y2="54" stroke="#000000" stroke-width="1"/>
	<text x="651" y="68.8" fill="#000000" font-family="Verdana" font-size="12">qte_vte</text>
	<text x="651" y="85.8" fill="#000000" font-family="Verdana" font-size="12">montant</text>
	<text x="651" y="102.8" fill="#000000" font-family="Verdana" font-size="12">date_vte</text>
</g>

<!-- Entity SOINS_ONGLES -->
<g id="entity-SOINS_ONGLES">
	<g id="frame-SOINS_ONGLES">
		<rect x="9" y="136" width="110" height="25" fill="#fdae61" stroke="#fdae61" stroke-width="0"/>
		<rect x="9" y="161.0" width="110" height="77" fill="#fee08b" stroke="#fee08b" stroke-width="0"/>
		<rect x="9" y="136" width="110" height="102" fill="none" stroke="#f46d43" stroke-width="2"/>
		<line x1="9" y1="161" x2="119" y2="161" stroke="#f46d43" stroke-width="1"/>
	</g>
	<text x="14" y="153.7" fill="#000000" font-family="Verdana" font-size="12">SOINS_ONGLES</text>
	<text x="14" y="178.7" fill="#000000" font-family="Verdana" font-size="12">Id_soins_ong</text>
	<line x1="14" y1="181" x2="96" y2="181" stroke="#000000" stroke-width="1"/>
	<text x="14" y="195.8" fill="#000000" font-family="Verdana" font-size="12">libelle</text>
	<text x="14" y="212.8" fill="#000000" font-family="Verdana" font-size="12">resume</text>
	<text x="14" y="229.8" fill="#000000" font-family="Verdana" font-size="12">prix</text>
</g>

<!-- Entity RESERVATION -->
<g id="entity-RESERVATION">
	<g id="frame-RESERVATION">
		<rect x="329" y="145" width="98" height="25" fill="#fdae61" stroke="#fdae61" stroke-width="0"/>
		<rect x="329" y="170.0" width="98" height="59" fill="#fee08b" stroke="#fee08b" stroke-width="0"/>
		<rect x="329" y="145" width="98" height="84" fill="none" stroke="#f46d43" stroke-width="2"/>
		<line x1="329" y1="170" x2="427" y2="170" stroke="#f46d43" stroke-width="1"/>
	</g>
	<text x="334" y="162.7" fill="#000000" font-family="Verdana" font-size="12">RESERVATION</text>
	<text x="334" y="187.8" fill="#000000" font-family="Verdana" font-size="12">Id_rst</text>
	<line x1="334" y1="190" x2="371" y2="190" stroke="#000000" stroke-width="1"/>
	<text x="334" y="204.8" fill="#000000" font-family="Verdana" font-size="12">nom</text>
	<text x="334" y="221.8" fill="#000000" font-family="Verdana" font-size="12">prenom</text>
</g>

<!-- Entity SOINS -->
<g id="entity-SOINS">
	<g id="frame-SOINS">
		<rect x="33" y="9" width="62" height="25" fill="#fdae61" stroke="#fdae61" stroke-width="0"/>
		<rect x="33" y="34.0" width="62" height="77" fill="#fee08b" stroke="#fee08b" stroke-width="0"/>
		<rect x="33" y="9" width="62" height="102" fill="none" stroke="#f46d43" stroke-width="2"/>
		<line x1="33" y1="34" x2="95" y2="34" stroke="#f46d43" stroke-width="1"/>
	</g>
	<text x="43" y="26.7" fill="#000000" font-family="Verdana" font-size="12">SOINS</text>
	<text x="38" y="51.7" fill="#000000" font-family="Verdana" font-size="12">Id_soins</text>
	<line x1="38" y1="54" x2="90" y2="54" stroke="#000000" stroke-width="1"/>
	<text x="38" y="68.8" fill="#000000" font-family="Verdana" font-size="12">libelle</text>
	<text x="38" y="85.8" fill="#000000" font-family="Verdana" font-size="12">resume</text>
	<text x="38" y="102.8" fill="#000000" font-family="Verdana" font-size="12">prix</text>
</g>
</svg>