<?xml version="1.0" standalone="no"?>
<!DOCTYPE svg PUBLIC "-//W3C//DTD SVG 1.1//EN"
"http://www.w3.org/Graphics/SVG/1.1/DTD/svg11.dtd">

<svg width="991" height="455" view_box="0 0 991 455"
xmlns="http://www.w3.org/2000/svg"
xmlns:link="http://www.w3.org/1999/xlink">\n\n<desc>Généré par Mocodo 2.3.7 le Mon, 16 Nov 2020 04:33:58</desc>

<rect id="frame" x="0" y="0" width="991" height="455" fill="#ffffff" stroke="none" stroke-width="0"/>

<!-- Association LIGNE DE COMMANDE DEVIS Coiffure -->
<line x1="131" y1="286" x2="131" y2="412" stroke="#878787" stroke-width="2"/>
<text x="136.0" y="345" fill="#b2182b" font-family="Verdana" font-size="12">1,N</text>
<line x1="329" y1="412" x2="131" y2="412" stroke="#878787" stroke-width="2"/>
<text x="258" y="429.0" fill="#b2182b" font-family="Verdana" font-size="12">1,N</text>
<g id="association-LIGNE DE COMMANDE DEVIS Coiffure">
	<path d="M 239 378 a 14 14 90 0 1 14 14 V 403 h -244 V 392 a 14 14 90 0 1 14 -14" fill="#bababa" stroke="#bababa" stroke-width="0"/>
	<path d="M 253 403.0 v 29 a 14 14 90 0 1 -14 14 H 23 a 14 14 90 0 1 -14 -14 V 403.0 H 244" fill="#e0e0e0" stroke="#e0e0e0" stroke-width="0"/>
	<rect x="9" y="378" width="244" height="68" fill="none" rx="14" stroke="#878787" stroke-width="2"/>
	<line x1="9" y1="403" x2="253" y2="403" stroke="#878787" stroke-width="1"/>
	<text x="16" y="395.7" fill="#000000" font-family="Verdana" font-size="12">LIGNE DE COMMANDE DEVIS Coiffure</text>
	<text x="16" y="420.8" fill="#000000" font-family="Verdana" font-size="12">date</text>
	<text x="16" y="437.8" fill="#000000" font-family="Verdana" font-size="12">besoins</text>
</g>

<!-- Association LIGNE DE COMMANDE shop -->
<line x1="850" y1="51" x2="643" y2="51" stroke="#878787" stroke-width="2"/>
<text x="790" y="68.0" fill="#b2182b" font-family="Verdana" font-size="12">1,N</text>
<line x1="487" y1="51" x2="643" y2="51" stroke="#878787" stroke-width="2"/>
<text x="524" y="68.0" fill="#b2182b" font-family="Verdana" font-size="12">1,N</text>
<g id="association-LIGNE DE COMMANDE shop">
	<path d="M 721 9 a 14 14 90 0 1 14 14 V 34 h -184 V 23 a 14 14 90 0 1 14 -14" fill="#bababa" stroke="#bababa" stroke-width="0"/>
	<path d="M 735 34.0 v 45 a 14 14 90 0 1 -14 14 H 565 a 14 14 90 0 1 -14 -14 V 34.0 H 184" fill="#e0e0e0" stroke="#e0e0e0" stroke-width="0"/>
	<rect x="551" y="9" width="184" height="84" fill="none" rx="14" stroke="#878787" stroke-width="2"/>
	<line x1="551" y1="34" x2="735" y2="34" stroke="#878787" stroke-width="1"/>
	<text x="558" y="26.7" fill="#000000" font-family="Verdana" font-size="12">LIGNE DE COMMANDE shop</text>
	<text x="558" y="51.8" fill="#000000" font-family="Verdana" font-size="12">id_cde</text>
	<text x="558" y="68.8" fill="#000000" font-family="Verdana" font-size="12">date</text>
	<text x="558" y="85.8" fill="#000000" font-family="Verdana" font-size="12">prix_unit</text>
</g>

<!-- Association DONNER -->
<line x1="643" y1="160" x2="643" y2="286" stroke="#878787" stroke-width="2"/>
<text x="648.0" y="219" fill="#b2182b" font-family="Verdana" font-size="12">1,1</text>
<line x1="487" y1="286" x2="643" y2="286" stroke="#878787" stroke-width="2"/>
<text x="527" y="303.0" fill="#b2182b" font-family="Verdana" font-size="12">1,N</text>
<g id="association-DONNER">
	<path d="M 663 261 a 14 14 90 0 1 14 14 V 286 h -68 V 275 a 14 14 90 0 1 14 -14" fill="#bababa" stroke="#bababa" stroke-width="0"/>
	<path d="M 677 286.0 v 11 a 14 14 90 0 1 -14 14 H 623 a 14 14 90 0 1 -14 -14 V 286.0 H 68" fill="#e0e0e0" stroke="#e0e0e0" stroke-width="0"/>
	<rect x="609" y="261" width="68" height="50" fill="none" rx="14" stroke="#878787" stroke-width="2"/>
	<line x1="609" y1="286" x2="677" y2="286" stroke="#878787" stroke-width="1"/>
	<text x="616" y="278.7" fill="#000000" font-family="Verdana" font-size="12">DONNER</text>
	<text x="616" y="303.8" fill="#000000" font-family="Verdana" font-size="12">date</text>
</g>

<!-- Association DAMANDER_MAQ -->
<line x1="643" y1="412" x2="487" y2="412" stroke="#878787" stroke-width="2"/>
<text x="574" y="429.0" fill="#b2182b" font-family="Verdana" font-size="12">1,1</text>
<line x1="487" y1="286" x2="487" y2="412" stroke="#878787" stroke-width="2"/>
<text x="492.0" y="379" fill="#b2182b" font-family="Verdana" font-size="12">1,1</text>
<g id="association-DAMANDER_MAQ">
	<path d="M 533 387 a 14 14 90 0 1 14 14 V 412 h -120 V 401 a 14 14 90 0 1 14 -14" fill="#bababa" stroke="#bababa" stroke-width="0"/>
	<path d="M 547 412.0 v 11 a 14 14 90 0 1 -14 14 H 441 a 14 14 90 0 1 -14 -14 V 412.0 H 120" fill="#e0e0e0" stroke="#e0e0e0" stroke-width="0"/>
	<rect x="427" y="387" width="120" height="50" fill="none" rx="14" stroke="#878787" stroke-width="2"/>
	<line x1="427" y1="412" x2="547" y2="412" stroke="#878787" stroke-width="1"/>
	<text x="434" y="404.7" fill="#000000" font-family="Verdana" font-size="12">DAMANDER_MAQ</text>
</g>

<!-- Association VENDU -->
<line x1="487" y1="286" x2="487" y2="160" stroke="#878787" stroke-width="2"/>
<text x="492.0" y="202" fill="#b2182b" font-family="Verdana" font-size="12">1,1</text>
<line x1="487" y1="51" x2="487" y2="160" stroke="#878787" stroke-width="2"/>
<text x="492.0" y="110" fill="#b2182b" font-family="Verdana" font-size="12">1,1</text>
<g id="association-VENDU">
	<path d="M 502 135 a 14 14 90 0 1 14 14 V 160 h -58 V 149 a 14 14 90 0 1 14 -14" fill="#bababa" stroke="#bababa" stroke-width="0"/>
	<path d="M 516 160.0 v 11 a 14 14 90 0 1 -14 14 H 472 a 14 14 90 0 1 -14 -14 V 160.0 H 58" fill="#e0e0e0" stroke="#e0e0e0" stroke-width="0"/>
	<rect x="458" y="135" width="58" height="50" fill="none" rx="14" stroke="#878787" stroke-width="2"/>
	<line x1="458" y1="160" x2="516" y2="160" stroke="#878787" stroke-width="1"/>
	<text x="465" y="152.7" fill="#000000" font-family="Verdana" font-size="12">VENDU</text>
</g>

<!-- Association LIGNE DE COMMANDE ongle -->
<line x1="131" y1="51" x2="329" y2="51" stroke="#878787" stroke-width="2"/>
<text x="169" y="68.0" fill="#b2182b" font-family="Verdana" font-size="12">1,N</text>
<line x1="487" y1="51" x2="329" y2="51" stroke="#878787" stroke-width="2"/>
<text x="428" y="68.0" fill="#b2182b" font-family="Verdana" font-size="12">1,N</text>
<g id="association-LIGNE DE COMMANDE ongle">
	<path d="M 409 9 a 14 14 90 0 1 14 14 V 34 h -188 V 23 a 14 14 90 0 1 14 -14" fill="#bababa" stroke="#bababa" stroke-width="0"/>
	<path d="M 423 34.0 v 45 a 14 14 90 0 1 -14 14 H 249 a 14 14 90 0 1 -14 -14 V 34.0 H 188" fill="#e0e0e0" stroke="#e0e0e0" stroke-width="0"/>
	<rect x="235" y="9" width="188" height="84" fill="none" rx="14" stroke="#878787" stroke-width="2"/>
	<line x1="235" y1="34" x2="423" y2="34" stroke="#878787" stroke-width="1"/>
	<text x="242" y="26.7" fill="#000000" font-family="Verdana" font-size="12">LIGNE DE COMMANDE ongle</text>
	<text x="242" y="51.8" fill="#000000" font-family="Verdana" font-size="12">id_cde</text>
	<text x="242" y="68.8" fill="#000000" font-family="Verdana" font-size="12">date</text>
	<text x="242" y="85.8" fill="#000000" font-family="Verdana" font-size="12">prix_unit</text>
</g>

<!-- Association DAMANDER_COIF -->
<line x1="329" y1="412" x2="329" y2="286" stroke="#878787" stroke-width="2"/>
<text x="334.0" y="370" fill="#b2182b" font-family="Verdana" font-size="12">1,1</text>
<line x1="487" y1="286" x2="329" y2="286" stroke="#878787" stroke-width="2"/>
<text x="426" y="303.0" fill="#b2182b" font-family="Verdana" font-size="12">1,1</text>
<g id="association-DAMANDER_COIF">
	<path d="M 376 261 a 14 14 90 0 1 14 14 V 286 h -122 V 275 a 14 14 90 0 1 14 -14" fill="#bababa" stroke="#bababa" stroke-width="0"/>
	<path d="M 390 286.0 v 11 a 14 14 90 0 1 -14 14 H 282 a 14 14 90 0 1 -14 -14 V 286.0 H 122" fill="#e0e0e0" stroke="#e0e0e0" stroke-width="0"/>
	<rect x="268" y="261" width="122" height="50" fill="none" rx="14" stroke="#878787" stroke-width="2"/>
	<line x1="268" y1="286" x2="390" y2="286" stroke="#878787" stroke-width="1"/>
	<text x="275" y="278.7" fill="#000000" font-family="Verdana" font-size="12">DAMANDER_COIF</text>
</g>

<!-- Association LIGNE DE COMMANDE DEVIS maquillage -->
<line x1="850" y1="286" x2="850" y2="412" stroke="#878787" stroke-width="2"/>
<text x="855.0" y="345" fill="#b2182b" font-family="Verdana" font-size="12">1,N</text>
<line x1="643" y1="412" x2="850" y2="412" stroke="#878787" stroke-width="2"/>
<text x="691" y="429.0" fill="#b2182b" font-family="Verdana" font-size="12">1,N</text>
<g id="association-LIGNE DE COMMANDE DEVIS maquillage">
	<path d="M 968 378 a 14 14 90 0 1 14 14 V 403 h -264 V 392 a 14 14 90 0 1 14 -14" fill="#bababa" stroke="#bababa" stroke-width="0"/>
	<path d="M 982 403.0 v 29 a 14 14 90 0 1 -14 14 H 732 a 14 14 90 0 1 -14 -14 V 403.0 H 264" fill="#e0e0e0" stroke="#e0e0e0" stroke-width="0"/>
	<rect x="718" y="378" width="264" height="68" fill="none" rx="14" stroke="#878787" stroke-width="2"/>
	<line x1="718" y1="403" x2="982" y2="403" stroke="#878787" stroke-width="1"/>
	<text x="725" y="395.7" fill="#000000" font-family="Verdana" font-size="12">LIGNE DE COMMANDE DEVIS maquillage</text>
	<text x="725" y="420.8" fill="#000000" font-family="Verdana" font-size="12">date</text>
	<text x="725" y="437.8" fill="#000000" font-family="Verdana" font-size="12">besoins</text>
</g>

<!-- Entity SHOP -->
<g id="entity-SHOP">
	<g id="frame-SHOP">
		<rect x="817" y="9" width="66" height="25" fill="#f4a582" stroke="#f4a582" stroke-width="0"/>
		<rect x="817" y="34.0" width="66" height="59" fill="#fddbc7" stroke="#fddbc7" stroke-width="0"/>
		<rect x="817" y="9" width="66" height="84" fill="none" stroke="#d6604d" stroke-width="2"/>
		<line x1="817" y1="34" x2="883" y2="34" stroke="#d6604d" stroke-width="1"/>
	</g>
	<text x="832" y="26.7" fill="#000000" font-family="Verdana" font-size="12">SHOP</text>
	<text x="822" y="51.8" fill="#000000" font-family="Verdana" font-size="12">id_prod</text>
	<line x1="822" y1="54" x2="869" y2="54" stroke="#000000" stroke-width="1"/>
	<text x="822" y="68.8" fill="#000000" font-family="Verdana" font-size="12">libellé</text>
	<text x="822" y="85.8" fill="#000000" font-family="Verdana" font-size="12">prix_unit</text>
</g>

<!-- Entity MAQUILLAGE -->
<g id="entity-MAQUILLAGE">
	<g id="frame-MAQUILLAGE">
		<rect x="804" y="244" width="92" height="25" fill="#f4a582" stroke="#f4a582" stroke-width="0"/>
		<rect x="804" y="269.0" width="92" height="59" fill="#fddbc7" stroke="#fddbc7" stroke-width="0"/>
		<rect x="804" y="244" width="92" height="84" fill="none" stroke="#d6604d" stroke-width="2"/>
		<line x1="804" y1="269" x2="896" y2="269" stroke="#d6604d" stroke-width="1"/>
	</g>
	<text x="809" y="261.7" fill="#000000" font-family="Verdana" font-size="12">MAQUILLAGE</text>
	<text x="809" y="286.8" fill="#000000" font-family="Verdana" font-size="12">id_maq</text>
	<line x1="809" y1="289" x2="855" y2="289" stroke="#000000" stroke-width="1"/>
	<text x="809" y="303.8" fill="#000000" font-family="Verdana" font-size="12">libellé</text>
	<text x="809" y="320.8" fill="#000000" font-family="Verdana" font-size="12">photo</text>
</g>

<!-- Entity DEVIS_MAQ -->
<g id="entity-DEVIS_MAQ">
	<g id="frame-DEVIS_MAQ">
		<rect x="600" y="378" width="86" height="25" fill="#f4a582" stroke="#f4a582" stroke-width="0"/>
		<rect x="600" y="403.0" width="86" height="43" fill="#fddbc7" stroke="#fddbc7" stroke-width="0"/>
		<rect x="600" y="378" width="86" height="68" fill="none" stroke="#d6604d" stroke-width="2"/>
		<line x1="600" y1="403" x2="686" y2="403" stroke="#d6604d" stroke-width="1"/>
	</g>
	<text x="605" y="395.7" fill="#000000" font-family="Verdana" font-size="12">DEVIS_MAQ</text>
	<text x="605" y="420.8" fill="#000000" font-family="Verdana" font-size="12">id_devis</text>
	<line x1="605" y1="423" x2="656" y2="423" stroke="#000000" stroke-width="1"/>
	<text x="605" y="437.8" fill="#000000" font-family="Verdana" font-size="12">date</text>
</g>

<!-- Entity VENTE -->
<g id="entity-VENTE">
	<g id="frame-VENTE">
		<rect x="455" y="9" width="64" height="25" fill="#f4a582" stroke="#f4a582" stroke-width="0"/>
		<rect x="455" y="34.0" width="64" height="59" fill="#fddbc7" stroke="#fddbc7" stroke-width="0"/>
		<rect x="455" y="9" width="64" height="84" fill="none" stroke="#d6604d" stroke-width="2"/>
		<line x1="455" y1="34" x2="519" y2="34" stroke="#d6604d" stroke-width="1"/>
	</g>
	<text x="466" y="26.7" fill="#000000" font-family="Verdana" font-size="12">VENTE</text>
	<text x="460" y="51.8" fill="#000000" font-family="Verdana" font-size="12">id_vente</text>
	<line x1="460" y1="54" x2="513" y2="54" stroke="#000000" stroke-width="1"/>
	<text x="460" y="68.8" fill="#000000" font-family="Verdana" font-size="12">date</text>
	<text x="460" y="85.8" fill="#000000" font-family="Verdana" font-size="12">montant</text>
</g>

<!-- Entity DEVIS_COIF -->
<g id="entity-DEVIS_COIF">
	<g id="frame-DEVIS_COIF">
		<rect x="285" y="378" width="88" height="25" fill="#f4a582" stroke="#f4a582" stroke-width="0"/>
		<rect x="285" y="403.0" width="88" height="43" fill="#fddbc7" stroke="#fddbc7" stroke-width="0"/>
		<rect x="285" y="378" width="88" height="68" fill="none" stroke="#d6604d" stroke-width="2"/>
		<line x1="285" y1="403" x2="373" y2="403" stroke="#d6604d" stroke-width="1"/>
	</g>
	<text x="290" y="395.7" fill="#000000" font-family="Verdana" font-size="12">DEVIS_COIF</text>
	<text x="290" y="420.8" fill="#000000" font-family="Verdana" font-size="12">id_devis</text>
	<line x1="290" y1="423" x2="341" y2="423" stroke="#000000" stroke-width="1"/>
	<text x="290" y="437.8" fill="#000000" font-family="Verdana" font-size="12">date</text>
</g>

<!-- Entity ONGLE -->
<g id="entity-ONGLE">
	<g id="frame-ONGLE">
		<rect x="98" y="9" width="66" height="25" fill="#f4a582" stroke="#f4a582" stroke-width="0"/>
		<rect x="98" y="34.0" width="66" height="59" fill="#fddbc7" stroke="#fddbc7" stroke-width="0"/>
		<rect x="98" y="9" width="66" height="84" fill="none" stroke="#d6604d" stroke-width="2"/>
		<line x1="98" y1="34" x2="164" y2="34" stroke="#d6604d" stroke-width="1"/>
	</g>
	<text x="109" y="26.7" fill="#000000" font-family="Verdana" font-size="12">ONGLE</text>
	<text x="103" y="51.8" fill="#000000" font-family="Verdana" font-size="12">id_ong</text>
	<line x1="103" y1="54" x2="145" y2="54" stroke="#000000" stroke-width="1"/>
	<text x="103" y="68.8" fill="#000000" font-family="Verdana" font-size="12">libellé</text>
	<text x="103" y="85.8" fill="#000000" font-family="Verdana" font-size="12">prix_unit</text>
</g>

<!-- Entity CLIENT -->
<g id="entity-CLIENT">
	<g id="frame-CLIENT">
		<rect x="452" y="210" width="70" height="25" fill="#f4a582" stroke="#f4a582" stroke-width="0"/>
		<rect x="452" y="235.0" width="70" height="127" fill="#fddbc7" stroke="#fddbc7" stroke-width="0"/>
		<rect x="452" y="210" width="70" height="152" fill="none" stroke="#d6604d" stroke-width="2"/>
		<line x1="452" y1="235" x2="522" y2="235" stroke="#d6604d" stroke-width="1"/>
	</g>
	<text x="464" y="227.7" fill="#000000" font-family="Verdana" font-size="12">CLIENT</text>
	<text x="457" y="252.7" fill="#000000" font-family="Verdana" font-size="12">id_client</text>
	<line x1="457" y1="255" x2="509" y2="255" stroke="#000000" stroke-width="1"/>
	<text x="457" y="269.7" fill="#000000" font-family="Verdana" font-size="12">nom</text>
	<text x="457" y="286.8" fill="#000000" font-family="Verdana" font-size="12">prénom</text>
	<text x="457" y="303.8" fill="#000000" font-family="Verdana" font-size="12">téléphone</text>
	<text x="457" y="320.8" fill="#000000" font-family="Verdana" font-size="12">email</text>
	<text x="457" y="337.8" fill="#000000" font-family="Verdana" font-size="12">ville</text>
	<text x="457" y="354.8" fill="#000000" font-family="Verdana" font-size="12">cp</text>
</g>

<!-- Entity AVIS -->
<g id="entity-AVIS">
	<g id="frame-AVIS">
		<rect x="616" y="118" width="54" height="25" fill="#f4a582" stroke="#f4a582" stroke-width="0"/>
		<rect x="616" y="143.0" width="54" height="59" fill="#fddbc7" stroke="#fddbc7" stroke-width="0"/>
		<rect x="616" y="118" width="54" height="84" fill="none" stroke="#d6604d" stroke-width="2"/>
		<line x1="616" y1="143" x2="670" y2="143" stroke="#d6604d" stroke-width="1"/>
	</g>
	<text x="627" y="135.7" fill="#000000" font-family="Verdana" font-size="12">AVIS</text>
	<text x="621" y="160.8" fill="#000000" font-family="Verdana" font-size="12">id_avis</text>
	<line x1="621" y1="163" x2="664" y2="163" stroke="#000000" stroke-width="1"/>
	<text x="621" y="177.8" fill="#000000" font-family="Verdana" font-size="12">libellé</text>
	<text x="621" y="194.8" fill="#000000" font-family="Verdana" font-size="12">date</text>
</g>

<!-- Entity COIFFURE -->
<g id="entity-COIFFURE">
	<g id="frame-COIFFURE">
		<rect x="95" y="244" width="72" height="25" fill="#f4a582" stroke="#f4a582" stroke-width="0"/>
		<rect x="95" y="269.0" width="72" height="59" fill="#fddbc7" stroke="#fddbc7" stroke-width="0"/>
		<rect x="95" y="244" width="72" height="84" fill="none" stroke="#d6604d" stroke-width="2"/>
		<line x1="95" y1="269" x2="167" y2="269" stroke="#d6604d" stroke-width="1"/>
	</g>
	<text x="100" y="261.7" fill="#000000" font-family="Verdana" font-size="12">COIFFURE</text>
	<text x="100" y="286.8" fill="#000000" font-family="Verdana" font-size="12">id_coif</text>
	<line x1="100" y1="289" x2="140" y2="289" stroke="#000000" stroke-width="1"/>
	<text x="100" y="303.8" fill="#000000" font-family="Verdana" font-size="12">libellé</text>
	<text x="100" y="320.8" fill="#000000" font-family="Verdana" font-size="12">photo</text>
</g>
</svg>